0
SECTION
2
HEADER
9
$INSUNITS
70
4
0
ENDSEC
0
SECTION
2
TABLES
0
TABLE
2
LTYPE
0
LTYPE
72
65
70
64
2
CONTINUOUS
3
______
73
0
40
0
0
ENDTAB
0
TABLE
2
LAYER
0
ENDTAB
0
ENDSEC
0
SECTION
2
ENTITIES
0
LINE
8
0
10
11.4848118
20
-3.5025385
11
8.4852814
21
-14.6969385
0
LINE
8
0
10
-14.6969385
20
-8.4852814
11
8.4852814
21
-14.6969385
0
LINE
8
0
10
-14.6969385
20
-8.4852814
11
1.3498423
21
51.4021199
0
LINE
8
0
10
1.3498423
20
51.4021199
11
24.519364
21
45.1938652
0
LINE
8
0
10
31.6877155
20
-5.282556
11
29.8965113
21
-10.2038492
0
LINE
8
0
10
11.4848118
20
-3.5025385
11
29.8965113
21
-10.2038492
0
LINE
8
0
10
28.5491374
20
56.2655767
11
47.8730892
21
49.2322333
0
LINE
8
0
10
24.519364
20
45.1938652
11
28.5491374
21
56.2655767
0
LINE
8
0
10
31.6877155
20
-5.282556
11
44.2837099
21
-10.3716681
0
LINE
8
0
10
49.8928256
20
54.2312562
11
72.1452381
21
45.2406979
0
LINE
8
0
10
72.1452381
20
45.2406979
11
69.8975986
21
39.6775948
0
LINE
8
0
10
47.8730892
20
49.2322333
11
49.8928256
21
54.2312562
0
LINE
8
0
10
50.3807251
20
-19.3062306
11
42.0360704
21
-15.9347712
0
LINE
8
0
10
42.0360704
20
-15.9347712
11
44.2837099
21
-10.3716681
0
LINE
8
0
10
69.8975986
20
39.6775948
11
87.5140918
21
32.5600695
0
LINE
8
0
10
87.5140918
20
32.5600695
11
86.3902721
21
29.7785181
0
LINE
8
0
10
87.4856932
20
-31.5774313
11
96.7526214
21
-8.6409791
0
LINE
8
0
10
86.3902721
20
29.7785181
11
139.9175619
21
8.1520892
0
LINE
8
0
10
41.9520768
20
-40.1678673
11
63.8506332
21
-49.0154584
0
LINE
8
0
10
41.9520768
20
-40.1678673
11
50.3807251
21
-19.3062306
0
LINE
8
0
10
87.4856932
20
-31.5774313
11
98.6553823
21
-39.6926855
0
LINE
8
0
10
63.8506332
20
-49.0154584
11
81.6597758
21
-61.9545579
0
LINE
8
0
10
183.0825024
20
-8.6409791
11
162.9582899
21
-24.9372449
0
LINE
8
0
10
95.7533792
20
-79.3587086
11
139.9175619
21
-43.5952586
0
LINE
8
0
10
81.6597758
20
-61.9545579
11
95.7533792
21
-79.3587086
0
LINE
8
0
10
98.6553823
20
-39.6926855
11
116.8768339
21
-24.9372449
0
LINE
8
0
10
278.4852815
20
51.4021199
11
294.5320623
21
-8.4852814
0
LINE
8
0
10
271.3498424
20
-14.6969385
11
294.5320623
21
-8.4852814
0
LINE
8
0
10
271.3498424
20
-14.6969385
11
268.350312
21
-3.5025385
0
LINE
8
0
10
255.3157598
20
45.1938652
11
278.4852815
21
51.4021199
0
LINE
8
0
10
249.9386125
20
-10.2038492
11
268.350312
21
-3.5025385
0
LINE
8
0
10
249.9386125
20
-10.2038492
11
248.1474083
21
-5.282556
0
LINE
8
0
10
231.9620346
20
49.2322333
11
251.2859864
21
56.2655767
0
LINE
8
0
10
251.2859864
20
56.2655767
11
255.3157598
21
45.1938652
0
LINE
8
0
10
235.5514139
20
-10.3716681
11
248.1474083
21
-5.282556
0
LINE
8
0
10
207.6898857
20
45.2406979
11
229.9422982
21
54.2312562
0
LINE
8
0
10
229.9422982
20
54.2312562
11
231.9620346
21
49.2322333
0
LINE
8
0
10
209.9375252
20
39.6775948
11
207.6898857
21
45.2406979
0
LINE
8
0
10
235.5514139
20
-10.3716681
11
237.7990534
21
-15.9347712
0
LINE
8
0
10
237.7990534
20
-15.9347712
11
229.4543987
21
-19.3062306
0
LINE
8
0
10
192.321032
20
32.5600695
11
209.9375252
21
39.6775948
0
LINE
8
0
10
193.4448517
20
29.7785181
11
192.321032
21
32.5600695
0
LINE
8
0
10
183.0825024
20
-8.6409791
11
192.3494306
21
-31.5774313
0
LINE
8
0
10
139.9175619
20
8.1520892
11
193.4448517
21
29.7785181
0
LINE
8
0
10
229.4543987
20
-19.3062306
11
237.883047
21
-40.1678673
0
LINE
8
0
10
215.9844906
20
-49.0154584
11
237.883047
21
-40.1678673
0
LINE
8
0
10
181.1797415
20
-39.6926855
11
192.3494306
21
-31.5774313
0
LINE
8
0
10
198.175348
20
-61.9545579
11
215.9844906
21
-49.0154584
0
LINE
8
0
10
162.9582899
20
-24.9372449
11
181.1797415
21
-39.6926855
0
LINE
8
0
10
184.0817446
20
-79.3587086
11
198.175348
21
-61.9545579
0
LINE
8
0
10
139.9175619
20
-43.5952586
11
184.0817446
21
-79.3587086
0
LINE
8
0
10
116.8768339
20
-24.9372449
11
96.7526214
21
-8.6409791
0
CIRCLE
8
0
10
21.6223667
20
34.3106263
40
1
0
CIRCLE
8
0
10
258.2127571
20
34.3106263
40
1
0
CIRCLE
8
0
10
11.2339363
20
7.2305504
40
1
0
CIRCLE
8
0
10
268.6011875
20
7.2305504
40
1
0
CIRCLE
8
0
10
60.1951576
20
26.3410796
40
1
0
CIRCLE
8
0
10
219.6399662
20
26.3410796
40
1
0
CIRCLE
8
0
10
105.0745892
20
9.287147
40
1
0
CIRCLE
8
0
10
174.7605346
20
9.287147
40
1
0
CIRCLE
8
0
10
118.0551631
20
4.0426547
40
1
0
CIRCLE
8
0
10
161.7799607
20
4.0426547
40
1
0
CIRCLE
8
0
10
61.2912398
20
-0.3101607
40
1
0
CIRCLE
8
0
10
218.543884
20
-0.3101607
40
1
0
CIRCLE
8
0
10
69.5840265
20
-38.3481968
40
1
0
CIRCLE
8
0
10
210.2510973
20
-38.3481968
40
1
0
CIRCLE
8
0
10
116.6222658
20
-43.158024
40
1
0
CIRCLE
8
0
10
163.212858
20
-43.158024
40
1
0
CIRCLE
8
0
10
125.1708714
20
-36.2354997
40
1
0
CIRCLE
8
0
10
154.6642524
20
-36.2354997
40
1
0
CIRCLE
8
0
10
139.9175619
20
-0.9699343
40
1
0
ENDSEC
0
EOF