0
SECTION
2
HEADER
9
$INSUNITS
70
4
0
ENDSEC
0
SECTION
2
TABLES
0
TABLE
2
LTYPE
0
LTYPE
72
65
70
64
2
CONTINUOUS
3
______
73
0
40
0
0
ENDTAB
0
TABLE
2
LAYER
0
ENDTAB
0
ENDSEC
0
SECTION
2
ENTITIES
0
LINE
8
0
10
11.4848118
20
-3.5025385
11
8.4852814
21
-14.6969385
0
LINE
8
0
10
-14.6969385
20
-8.4852814
11
8.4852814
21
-14.6969385
0
LINE
8
0
10
-14.6969385
20
-8.4852814
11
1.3498423
21
51.4021199
0
LINE
8
0
10
1.3498423
20
51.4021199
11
24.519364
21
45.1938652
0
LINE
8
0
10
31.6877155
20
-5.282556
11
29.8965113
21
-10.2038492
0
LINE
8
0
10
11.4848118
20
-3.5025385
11
29.8965113
21
-10.2038492
0
LINE
8
0
10
28.5491374
20
56.2655767
11
47.8730892
21
49.2322333
0
LINE
8
0
10
24.519364
20
45.1938652
11
28.5491374
21
56.2655767
0
LINE
8
0
10
31.6877155
20
-5.282556
11
44.2837099
21
-10.3716681
0
LINE
8
0
10
49.8928256
20
54.2312562
11
72.1452381
21
45.2406979
0
LINE
8
0
10
72.1452381
20
45.2406979
11
69.8975986
21
39.6775948
0
LINE
8
0
10
47.8730892
20
49.2322333
11
49.8928256
21
54.2312562
0
LINE
8
0
10
50.3807251
20
-19.3062306
11
42.0360704
21
-15.9347712
0
LINE
8
0
10
42.0360704
20
-15.9347712
11
44.2837099
21
-10.3716681
0
LINE
8
0
10
69.8975986
20
39.6775948
11
87.5140918
21
32.5600695
0
LINE
8
0
10
87.5140918
20
32.5600695
11
86.3902721
21
29.7785181
0
LINE
8
0
10
87.4856932
20
-31.5774313
11
96.6324098
21
-8.9385133
0
LINE
8
0
10
86.3902721
20
29.7785181
11
122.1240498
21
15.3411347
0
LINE
8
0
10
41.9520768
20
-40.1678673
11
63.8506332
21
-49.0154584
0
LINE
8
0
10
41.9520768
20
-40.1678673
11
50.3807251
21
-19.3062306
0
LINE
8
0
10
87.4856932
20
-31.5774313
11
98.6553823
21
-39.6926855
0
LINE
8
0
10
63.8506332
20
-49.0154584
11
81.6597758
21
-61.9545579
0
LINE
8
0
10
95.7533792
20
-79.3587086
11
130.7249474
21
-51.039291
0
LINE
8
0
10
81.6597758
20
-61.9545579
11
95.7533792
21
-79.3587086
0
LINE
8
0
10
98.6553823
20
-39.6926855
11
112.4746561
21
-28.5020582
0
LINE
8
0
10
278.4852815
20
51.4021199
11
294.5320623
21
-8.4852814
0
LINE
8
0
10
271.3498424
20
-14.6969385
11
294.5320623
21
-8.4852814
0
LINE
8
0
10
271.3498424
20
-14.6969385
11
268.350312
21
-3.5025385
0
LINE
8
0
10
255.3157598
20
45.1938652
11
278.4852815
21
51.4021199
0
LINE
8
0
10
249.9386125
20
-10.2038492
11
268.350312
21
-3.5025385
0
LINE
8
0
10
249.9386125
20
-10.2038492
11
248.1474083
21
-5.282556
0
LINE
8
0
10
231.9620346
20
49.2322333
11
251.2859864
21
56.2655767
0
LINE
8
0
10
251.2859864
20
56.2655767
11
255.3157598
21
45.1938652
0
LINE
8
0
10
235.5514139
20
-10.3716681
11
248.1474083
21
-5.282556
0
LINE
8
0
10
207.6898857
20
45.2406979
11
229.9422982
21
54.2312562
0
LINE
8
0
10
229.9422982
20
54.2312562
11
231.9620346
21
49.2322333
0
LINE
8
0
10
209.9375252
20
39.6775948
11
207.6898857
21
45.2406979
0
LINE
8
0
10
235.5514139
20
-10.3716681
11
237.7990534
21
-15.9347712
0
LINE
8
0
10
237.7990534
20
-15.9347712
11
229.4543987
21
-19.3062306
0
LINE
8
0
10
192.321032
20
32.5600695
11
209.9375252
21
39.6775948
0
LINE
8
0
10
193.4448517
20
29.7785181
11
192.321032
21
32.5600695
0
LINE
8
0
10
183.202714
20
-8.9385133
11
192.3494306
21
-31.5774313
0
LINE
8
0
10
157.711074
20
15.3411347
11
193.4448517
21
29.7785181
0
LINE
8
0
10
229.4543987
20
-19.3062306
11
237.883047
21
-40.1678673
0
LINE
8
0
10
215.9844906
20
-49.0154584
11
237.883047
21
-40.1678673
0
LINE
8
0
10
181.1797415
20
-39.6926855
11
192.3494306
21
-31.5774313
0
LINE
8
0
10
198.175348
20
-61.9545579
11
215.9844906
21
-49.0154584
0
LINE
8
0
10
167.3604677
20
-28.5020582
11
181.1797415
21
-39.6926855
0
LINE
8
0
10
184.0817446
20
-79.3587086
11
198.175348
21
-61.9545579
0
LINE
8
0
10
149.1101764
20
-51.039291
11
184.0817446
21
-79.3587086
0
LINE
8
0
10
94.8536851
20
-6.7419712
11
96.6324098
21
-8.9385133
0
LINE
8
0
10
112.4746561
20
-28.5020582
11
130.7249474
21
-51.039291
0
LINE
8
0
10
122.1240498
20
15.3411347
11
94.8536851
21
-6.7419712
0
LINE
8
0
10
183.202714
20
-8.9385133
11
184.9814387
21
-6.7419712
0
LINE
8
0
10
149.1101764
20
-51.039291
11
167.3604677
21
-28.5020582
0
LINE
8
0
10
184.9814387
20
-6.7419712
11
157.711074
21
15.3411347
0
CIRCLE
8
0
10
21.6223667
20
34.3106263
40
1
0
CIRCLE
8
0
10
258.2127571
20
34.3106263
40
1
0
CIRCLE
8
0
10
11.2339363
20
7.2305504
40
1
0
CIRCLE
8
0
10
268.6011875
20
7.2305504
40
1
0
CIRCLE
8
0
10
60.1951576
20
26.3410796
40
1
0
CIRCLE
8
0
10
219.6399662
20
26.3410796
40
1
0
CIRCLE
8
0
10
105.0745892
20
9.287147
40
1
0
CIRCLE
8
0
10
174.7605346
20
9.287147
40
1
0
CIRCLE
8
0
10
61.2912398
20
-0.3101607
40
1
0
CIRCLE
8
0
10
218.543884
20
-0.3101607
40
1
0
CIRCLE
8
0
10
69.5840265
20
-38.3481968
40
1
0
CIRCLE
8
0
10
210.2510973
20
-38.3481968
40
1
0
CIRCLE
8
0
10
116.6222658
20
-43.158024
40
1
0
CIRCLE
8
0
10
163.212858
20
-43.158024
40
1
0
LINE
8
0
10
-8.5732141
20
-4.9497475
11
4.9497475
21
-8.5732141
0
LINE
8
0
10
4.9497475
20
-8.5732141
11
8.5732141
21
4.9497475
0
LINE
8
0
10
8.5732141
20
4.9497475
11
-4.9497475
21
8.5732141
0
LINE
8
0
10
-4.9497475
20
8.5732141
11
-8.5732141
21
-4.9497475
0
LINE
8
0
10
-3.6556522
20
13.4028432
11
9.8673094
21
9.7793766
0
LINE
8
0
10
9.8673094
20
9.7793766
11
13.490776
21
23.3023382
0
LINE
8
0
10
13.490776
20
23.3023382
11
-0.0321856
21
26.9258048
0
LINE
8
0
10
-0.0321856
20
26.9258048
11
-3.6556522
21
13.4028432
0
LINE
8
0
10
1.2619096
20
31.7554339
11
14.7848712
21
28.1319673
0
LINE
8
0
10
14.7848712
20
28.1319673
11
18.4083378
21
41.6549289
0
LINE
8
0
10
18.4083378
20
41.6549289
11
4.8853762
21
45.2783955
0
LINE
8
0
10
4.8853762
20
45.2783955
11
1.2619096
21
31.7554339
0
LINE
8
0
10
13.7524523
20
0.9929967
11
26.9081489
21
-3.7952853
0
LINE
8
0
10
26.9081489
20
-3.7952853
11
31.6964309
21
9.3604113
0
LINE
8
0
10
31.6964309
20
9.3604113
11
18.5407343
21
14.1486933
0
LINE
8
0
10
18.5407343
20
14.1486933
11
13.7524523
21
0.9929967
0
LINE
8
0
10
20.2508351
20
18.8471565
11
33.4065317
21
14.0588745
0
LINE
8
0
10
33.4065317
20
14.0588745
11
38.1948137
21
27.2145711
0
LINE
8
0
10
38.1948137
20
27.2145711
11
25.0391171
21
32.0028531
0
LINE
8
0
10
25.0391171
20
32.0028531
11
20.2508351
21
18.8471565
0
LINE
8
0
10
26.7492178
20
36.7013162
11
39.9049144
21
31.9130342
0
LINE
8
0
10
39.9049144
20
31.9130342
11
44.6931964
21
45.0687308
0
LINE
8
0
10
44.6931964
20
45.0687308
11
31.5374998
21
49.8570128
0
LINE
8
0
10
31.5374998
20
49.8570128
11
26.7492178
21
36.7013162
0
LINE
8
0
10
33.1761691
20
-0.4912565
11
46.156743
21
-5.7357488
0
LINE
8
0
10
46.156743
20
-5.7357488
11
51.4012353
21
7.2448251
0
LINE
8
0
10
51.4012353
20
7.2448251
11
38.4206614
21
12.4893174
0
LINE
8
0
10
38.4206614
20
12.4893174
11
33.1761691
21
-0.4912565
0
LINE
8
0
10
40.2936943
20
17.1252369
11
53.2742682
21
11.8807446
0
LINE
8
0
10
53.2742682
20
11.8807446
11
58.5187605
21
24.8613185
0
LINE
8
0
10
58.5187605
20
24.8613185
11
45.5381866
21
30.1058108
0
LINE
8
0
10
45.5381866
20
30.1058108
11
40.2936943
21
17.1252369
0
LINE
8
0
10
47.4112196
20
34.74173
11
60.3917935
21
29.4972377
0
LINE
8
0
10
60.3917935
20
29.4972377
11
65.6362858
21
42.4778116
0
LINE
8
0
10
65.6362858
20
42.4778116
11
52.6557119
21
47.7223039
0
LINE
8
0
10
52.6557119
20
47.7223039
11
47.4112196
21
34.74173
0
LINE
8
0
10
48.5450227
20
-13.1718849
11
61.5255966
21
-18.4163772
0
LINE
8
0
10
61.5255966
20
-18.4163772
11
66.7700889
21
-5.4358033
0
LINE
8
0
10
66.7700889
20
-5.4358033
11
53.789515
21
-0.191311
0
LINE
8
0
10
53.789515
20
-0.191311
11
48.5450227
21
-13.1718849
0
LINE
8
0
10
55.662548
20
4.4446084
11
68.6431219
21
-0.7998839
0
LINE
8
0
10
68.6431219
20
-0.7998839
11
73.8876142
21
12.18069
0
LINE
8
0
10
73.8876142
20
12.18069
11
60.9070403
21
17.4251823
0
LINE
8
0
10
60.9070403
20
17.4251823
11
55.662548
21
4.4446084
0
LINE
8
0
10
62.7800733
20
22.0611016
11
75.7606472
21
16.8166093
0
LINE
8
0
10
75.7606472
20
16.8166093
11
81.0051395
21
29.7971832
0
LINE
8
0
10
81.0051395
20
29.7971832
11
68.0245656
21
35.0416755
0
LINE
8
0
10
68.0245656
20
35.0416755
11
62.7800733
21
22.0611016
0
LINE
8
0
10
65.0376962
20
-23.0709617
11
78.0182701
21
-28.315454
0
LINE
8
0
10
78.0182701
20
-28.315454
11
83.2627624
21
-15.3348801
0
LINE
8
0
10
83.2627624
20
-15.3348801
11
70.2821885
21
-10.0903878
0
LINE
8
0
10
70.2821885
20
-10.0903878
11
65.0376962
21
-23.0709617
0
LINE
8
0
10
72.1552215
20
-5.4544685
11
85.1357954
21
-10.6989608
0
LINE
8
0
10
85.1357954
20
-10.6989608
11
90.3802877
21
2.2816131
0
LINE
8
0
10
90.3802877
20
2.2816131
11
77.3997138
21
7.5261054
0
LINE
8
0
10
77.3997138
20
7.5261054
11
72.1552215
21
-5.4544685
0
LINE
8
0
10
79.2727467
20
12.1620249
11
92.2533206
21
6.9175326
0
LINE
8
0
10
92.2533206
20
6.9175326
11
97.4978129
21
19.8981065
0
LINE
8
0
10
97.4978129
20
19.8981065
11
84.517239
21
25.1425988
0
LINE
8
0
10
84.517239
20
25.1425988
11
79.2727467
21
12.1620249
0
LINE
8
0
10
48.4610291
20
-37.404981
11
61.441603
21
-42.6494733
0
LINE
8
0
10
61.441603
20
-42.6494733
11
66.6860953
21
-29.6688994
0
LINE
8
0
10
66.6860953
20
-29.6688994
11
53.7055214
21
-24.4244071
0
LINE
8
0
10
53.7055214
20
-24.4244071
11
48.4610291
21
-37.404981
0
LINE
8
0
10
69.5146147
20
-46.950242
11
80.8408526
21
-55.1792355
0
LINE
8
0
10
80.8408526
20
-55.1792355
11
89.0698461
21
-43.8529976
0
LINE
8
0
10
89.0698461
20
-43.8529976
11
77.7436082
21
-35.6240041
0
LINE
8
0
10
77.7436082
20
-35.6240041
11
69.5146147
21
-46.950242
0
LINE
8
0
10
87.6820215
20
-61.4463334
11
96.492507
21
-72.3263769
0
LINE
8
0
10
96.492507
20
-72.3263769
11
107.3725505
21
-63.5158914
0
LINE
8
0
10
107.3725505
20
-63.5158914
11
98.562065
21
-52.6358479
0
LINE
8
0
10
98.562065
20
-52.6358479
11
87.6820215
21
-61.4463334
0
LINE
8
0
10
274.8853763
20
-8.5732141
11
288.4083379
21
-4.9497475
0
LINE
8
0
10
288.4083379
20
-4.9497475
11
284.7848713
21
8.5732141
0
LINE
8
0
10
284.7848713
20
8.5732141
11
271.2619097
21
4.9497475
0
LINE
8
0
10
271.2619097
20
4.9497475
11
274.8853763
21
-8.5732141
0
LINE
8
0
10
269.9678144
20
9.7793766
11
283.490776
21
13.4028432
0
LINE
8
0
10
283.490776
20
13.4028432
11
279.8673094
21
26.9258048
0
LINE
8
0
10
279.8673094
20
26.9258048
11
266.3443478
21
23.3023382
0
LINE
8
0
10
266.3443478
20
23.3023382
11
269.9678144
21
9.7793766
0
LINE
8
0
10
265.0502526
20
28.1319673
11
278.5732142
21
31.7554339
0
LINE
8
0
10
278.5732142
20
31.7554339
11
274.9497476
21
45.2783955
0
LINE
8
0
10
274.9497476
20
45.2783955
11
261.426786
21
41.6549289
0
LINE
8
0
10
261.426786
20
41.6549289
11
265.0502526
21
28.1319673
0
LINE
8
0
10
252.9269749
20
-3.7952853
11
266.0826715
21
0.9929967
0
LINE
8
0
10
266.0826715
20
0.9929967
11
261.2943895
21
14.1486933
0
LINE
8
0
10
261.2943895
20
14.1486933
11
248.1386929
21
9.3604113
0
LINE
8
0
10
248.1386929
20
9.3604113
11
252.9269749
21
-3.7952853
0
LINE
8
0
10
246.4285921
20
14.0588745
11
259.5842887
21
18.8471565
0
LINE
8
0
10
259.5842887
20
18.8471565
11
254.7960067
21
32.0028531
0
LINE
8
0
10
254.7960067
20
32.0028531
11
241.6403101
21
27.2145711
0
LINE
8
0
10
241.6403101
20
27.2145711
11
246.4285921
21
14.0588745
0
LINE
8
0
10
239.9302094
20
31.9130342
11
253.085906
21
36.7013162
0
LINE
8
0
10
253.085906
20
36.7013162
11
248.297624
21
49.8570128
0
LINE
8
0
10
248.297624
20
49.8570128
11
235.1419274
21
45.0687308
0
LINE
8
0
10
235.1419274
20
45.0687308
11
239.9302094
21
31.9130342
0
LINE
8
0
10
233.6783808
20
-5.7357488
11
246.6589547
21
-0.4912565
0
LINE
8
0
10
246.6589547
20
-0.4912565
11
241.4144624
21
12.4893174
0
LINE
8
0
10
241.4144624
20
12.4893174
11
228.4338885
21
7.2448251
0
LINE
8
0
10
228.4338885
20
7.2448251
11
233.6783808
21
-5.7357488
0
LINE
8
0
10
226.5608556
20
11.8807446
11
239.5414295
21
17.1252369
0
LINE
8
0
10
239.5414295
20
17.1252369
11
234.2969372
21
30.1058108
0
LINE
8
0
10
234.2969372
20
30.1058108
11
221.3163633
21
24.8613185
0
LINE
8
0
10
221.3163633
20
24.8613185
11
226.5608556
21
11.8807446
0
LINE
8
0
10
219.4433303
20
29.4972377
11
232.4239042
21
34.74173
0
LINE
8
0
10
232.4239042
20
34.74173
11
227.1794119
21
47.7223039
0
LINE
8
0
10
227.1794119
20
47.7223039
11
214.198838
21
42.4778116
0
LINE
8
0
10
214.198838
20
42.4778116
11
219.4433303
21
29.4972377
0
LINE
8
0
10
218.3095272
20
-18.4163772
11
231.2901011
21
-13.1718849
0
LINE
8
0
10
231.2901011
20
-13.1718849
11
226.0456088
21
-0.191311
0
LINE
8
0
10
226.0456088
20
-0.191311
11
213.0650349
21
-5.4358033
0
LINE
8
0
10
213.0650349
20
-5.4358033
11
218.3095272
21
-18.4163772
0
LINE
8
0
10
211.1920019
20
-0.7998839
11
224.1725758
21
4.4446084
0
LINE
8
0
10
224.1725758
20
4.4446084
11
218.9280835
21
17.4251823
0
LINE
8
0
10
218.9280835
20
17.4251823
11
205.9475096
21
12.18069
0
LINE
8
0
10
205.9475096
20
12.18069
11
211.1920019
21
-0.7998839
0
LINE
8
0
10
204.0744766
20
16.8166093
11
217.0550505
21
22.0611016
0
LINE
8
0
10
217.0550505
20
22.0611016
11
211.8105582
21
35.0416755
0
LINE
8
0
10
211.8105582
20
35.0416755
11
198.8299843
21
29.7971832
0
LINE
8
0
10
198.8299843
20
29.7971832
11
204.0744766
21
16.8166093
0
LINE
8
0
10
201.8168537
20
-28.315454
11
214.7974276
21
-23.0709617
0
LINE
8
0
10
214.7974276
20
-23.0709617
11
209.5529353
21
-10.0903878
0
LINE
8
0
10
209.5529353
20
-10.0903878
11
196.5723614
21
-15.3348801
0
LINE
8
0
10
196.5723614
20
-15.3348801
11
201.8168537
21
-28.315454
0
LINE
8
0
10
194.6993284
20
-10.6989608
11
207.6799023
21
-5.4544685
0
LINE
8
0
10
207.6799023
20
-5.4544685
11
202.43541
21
7.5261054
0
LINE
8
0
10
202.43541
20
7.5261054
11
189.4548361
21
2.2816131
0
LINE
8
0
10
189.4548361
20
2.2816131
11
194.6993284
21
-10.6989608
0
LINE
8
0
10
187.5818032
20
6.9175326
11
200.5623771
21
12.1620249
0
LINE
8
0
10
200.5623771
20
12.1620249
11
195.3178848
21
25.1425988
0
LINE
8
0
10
195.3178848
20
25.1425988
11
182.3373109
21
19.8981065
0
LINE
8
0
10
182.3373109
20
19.8981065
11
187.5818032
21
6.9175326
0
LINE
8
0
10
218.3935208
20
-42.6494733
11
231.3740947
21
-37.404981
0
LINE
8
0
10
231.3740947
20
-37.404981
11
226.1296024
21
-24.4244071
0
LINE
8
0
10
226.1296024
20
-24.4244071
11
213.1490285
21
-29.6688994
0
LINE
8
0
10
213.1490285
20
-29.6688994
11
218.3935208
21
-42.6494733
0
LINE
8
0
10
198.9942712
20
-55.1792355
11
210.3205091
21
-46.950242
0
LINE
8
0
10
210.3205091
20
-46.950242
11
202.0915156
21
-35.6240041
0
LINE
8
0
10
202.0915156
20
-35.6240041
11
190.7652777
21
-43.8529976
0
LINE
8
0
10
190.7652777
20
-43.8529976
11
198.9942712
21
-55.1792355
0
LINE
8
0
10
183.3426168
20
-72.3263769
11
192.1531023
21
-61.4463334
0
LINE
8
0
10
192.1531023
20
-61.4463334
11
181.2730588
21
-52.6358479
0
LINE
8
0
10
181.2730588
20
-52.6358479
11
172.4625733
21
-63.5158914
0
LINE
8
0
10
172.4625733
20
-63.5158914
11
183.3426168
21
-72.3263769
0
ENDSEC
0
EOF